<?xml version="1.0" encoding="UTF-8" standalone="no"?>
<!-- Created with Inkscape (http://www.inkscape.org/) -->

<svg
   xmlns:dc="http://purl.org/dc/elements/1.1/"
   xmlns:cc="http://creativecommons.org/ns#"
   xmlns:rdf="http://www.w3.org/1999/02/22-rdf-syntax-ns#"
   xmlns:svg="http://www.w3.org/2000/svg"
   xmlns="http://www.w3.org/2000/svg"
   xmlns:sodipodi="http://sodipodi.sourceforge.net/DTD/sodipodi-0.dtd"
   xmlns:inkscape="http://www.inkscape.org/namespaces/inkscape"
   id="svg3004"
   version="1.1"
   inkscape:version="0.48.2 r9819"
   width="990"
   height="765"
   xml:space="preserve"
   sodipodi:docname="mono_cg_vs_atomistic.pdf"><metadata
     id="metadata3010"><rdf:RDF><cc:Work
         rdf:about=""><dc:format>image/svg+xml</dc:format><dc:type
           rdf:resource="http://purl.org/dc/dcmitype/StillImage" /><dc:title></dc:title></cc:Work></rdf:RDF></metadata><defs
     id="defs3008" /><sodipodi:namedview
     pagecolor="#ffffff"
     bordercolor="#666666"
     borderopacity="1"
     objecttolerance="10"
     gridtolerance="10"
     guidetolerance="10"
     inkscape:pageopacity="0"
     inkscape:pageshadow="2"
     inkscape:window-width="1920"
     inkscape:window-height="1032"
     id="namedview3006"
     showgrid="false"
     inkscape:zoom="1.103268"
     inkscape:cx="267.49408"
     inkscape:cy="563.77962"
     inkscape:window-x="1080"
     inkscape:window-y="461"
     inkscape:window-maximized="1"
     inkscape:current-layer="g3012" /><g
     id="g3012"
     inkscape:groupmode="layer"
     inkscape:label="ink_ext_XXXXXX"
     transform="matrix(0,1.25,1.25,0,0,0)"><g
   id="g3014"
   transform="scale(0.1,0.1)"><path
     d="m 5202,918 0,1062.43 -0.61,2.45 0.61,2.45 -0.61,2.45 0,4.89 -1.84,2.45 -1.22,2.45 -1.22,2.45 -1.23,2.44 -8.57,2.45 -4.89,2.45 -11.63,2.45 -13.47,2.45 -20.19,2.44 -21.42,2.45 -34.89,2.45 -37.94,2.45 -44.06,2.45 -77.12,2.45 -55.69,2.44 -96.08,2.45 -135.25,2.45 -140.15,2.44 -149.33,2.45 -156.67,2.45 -172.58,2.45 -188.5,2.45 -261.33,2.45 -230.72,2.45 -184.21,2.44 -280.91,2.45 -239.9,2.45 -310.9,2.44 -250.31,2.45 -329.25,2.45 -319.47,2.45 -240.51,2.45 -196.456,2.45 -66.097,0.61"
     style="fill:none;stroke:#000000;stroke-opacity:1;stroke-width:9.18;stroke-linecap:butt;stroke-linejoin:miter;stroke-miterlimit:10;stroke-dasharray:none"
     id="path3016" /><path
     d="m 917.387,2144.45 178.093,2.44 140.15,2.45 126.68,2.45 110.16,2.45 139.54,2.45 160.34,2.45 88.74,2.45 145.05,2.44 98.53,2.45 81.39,2.45 139.54,2.45 50.19,2.44 146.87,2.45 97.31,2.45 80.79,2.45 61.81,2.45 106.48,2.44 91.81,2.45 49.57,2.45 97.92,2.45 79.56,2.45 113.83,2.44 0,2.45 85.07,2.45 59.36,2.45 59.98,2.45 53.85,2.44 71,2.45 50.79,2.45 64.87,2.45 -32.43,2.45 90.57,2.45 64.26,2.44 39.78,2.45 42.84,2.45 55.09,2.44 2.44,2.45 45.29,2.45 33.66,2.45 5.51,2.45 42.84,2.45 11.63,2.45 56.3,2.44 36.11,2.45 12.85,2.45 25.71,2.44 16.52,2.45 22.03,2.45 47.13,2.45 -3.68,2.45 16.53,2.45 9.18,2.44 31.82,2.45 3.67,2.45 39.78,2.45 29.38,2.45 -26.93,2.44 11.01,2.45 45.29,2.45 -0.61,2.45 14.08,2.45 23.25,2.44 22.04,2.45 -3.67,2.45 30.59,2.45 -3.06,2.45 -15.3,2.44 7.96,2.45 25.09,2.45 7.34,2.45 1.84,2.45 22.65,2.44 -19.59,2.45 11.02,2.45 26.32,2.45 -21.43,2.45 1.23,2.45 25.09,2.44 12.24,2.45 -6.73,2.45 11.01,2.44 20.81,2.45 -23.87,2.45 25.09,2.45 9.19,2.45 -16.53,2.45 10.41,2.45 0,2.44 4.28,2.45 12.24,2.45 3.06,2.44 -6.12,2.45 -6.73,2.45 14.08,2.45 6.11,2.45 11.63,2.45 -7.96,2.44 14.7,2.45 5.5,2.45 -14.69,2.45 6.12,2.45 -2.45,2.44 -26.92,2.45 32.44,2.45 2.44,2.45 -14.07,2.45 8.56,2.44 10.41,2.45 -10.41,2.45 4.9,2.45 -10.4,2.45 -16.53,2.44 14.08,2.45 10.4,2.45 -5.51,2.45 -0.61,2.45 -5.51,2.44 23.87,2.45 -15.91,2.45 -13.46,2.45 -7.96,2.45 2.45,2.45 1.83,2.44 6.73,2.45 10.41,2.45 -18.97,2.44 -4.29,2.45 3.07,2.45 -14.08,2.45 12.24,2.45 -18.97,2.45 3.67,2.45 1.22,2.44 -4.89,2.45 4.28,2.45 -1.22,2.45 -16.53,2.44 12.24,2.45 -14.69,2.45 2.45,2.45 -4.89,2.45 -4.9,2.44 -19.58,2.45 24.48,2.45 -31.22,2.45 10.41,2.45 -4.9,2.44 -8.57,2.45 3.06,2.45 -18.36,2.45 2.45,2.45 0,2.44 0.62,2.45 6.11,2.45 -16.52,2.45 -12.24,2.45 6.12,2.45 -18.36,2.44 -9.79,2.45 7.95,2.45 -3.06,2.44 -13.46,2.45 -11.63,2.45 9.18,2.45 -33.05,2.45 9.18,2.45 -23.86,2.45 0.61,2.44 -12.24,2.45 -20.81,2.45 22.64,2.44 -23.25,2.45 -1.84,2.45 2.45,2.45 -33.05,2.45 12.85,2.45 -22.03,2.45 -6.73,2.44 -40.39,2.45 -4.28,2.45 -17.14,2.45 3.67,2.44 -24.48,2.45 -3.67,2.45 -6.74,2.45 -25.7,2.45 7.34,2.44 -31.82,2.45 2.45,2.45 -19.58,2.45 -6.12,2.45 -17.75,2.44 -5.51,2.45 -0.61,2.45 -1.84,2.45 -37.94,2.45 6.12,2.44 -15.3,2.45 2.45,2.45 -15.92,2.45 -42.84,2.45 22.04,2.45 -16.53,2.44 -12.24,2.45 1.84,2.45 0.61,2.44 -31.21,2.45 21.42,2.45 -1.23,2.45 3.68,2.45 -14.69,2.45 9.18,2.45 -20.2,2.44 12.24,2.45 -29.37,2.45 19.58,2.44 18.36,2.45 -21.42,2.45 4.9,2.45 14.68,2.45 -14.07,2.45 11.63,2.44 13.46,2.45 9.79,2.45 -22.03,2.45 23.26,2.45 -7.96,2.44 37.94,2.45 -2.45,2.45 -3.05,2.45 30.6,2.45 -17.75,2.44 -3.06,2.45 30.6,2.45 -11.63,2.45 3.67,2.45 23.26,2.44 4.9,2.45 -20.81,2.45 17.13,2.45 4.29,2.45 7.95,2.44 -5.51,2.45 30.6,2.45 15.3,2.45 -21.41,2.45 25.09,2.45 -12.86,2.44 -4.28,2.45 15.3,2.45 -13.47,2.44 0,2.45 -5.5,2.45 15.91,2.45 -0.61,2.45 2.45,2.45 -29.38,2.45 23.87,2.44 -16.52,2.45 -0.62,2.45 -1.83,2.45 -2.45,2.44 -26.32,2.45 13.47,2.45 -11.63,2.45 9.79,2.45 -13.47,2.44 9.19,2.45 -37.33,2.45 17.13,2.45 -6.73,2.45 -1.84,2.44 -25.09,2.45 0,2.45 -4.28,2.45 -4.9,2.45 -4.9,2.44 -22.03,2.45 -14.07,2.45 -11.02,2.45 20.81,2.45 -7.35,2.45 -15.3,2.44 -9.18,2.45 -21.41,2.45 -9.8,2.44 14.08,2.45 -21.42,2.45 -14.69,2.45 18.97,2.45 -22.03,2.45 -7.95,2.45 -5.52,2.44 1.23,2.45 -37.94,2.45 8.57,2.44 4.89,2.45 -22.64,2.45 17.13,2.45 -37.33,2.45 19.58,2.45 0,2.44 -10.4,2.45 -20.2,2.45 -1.22,2.45 -8.57,2.45 -8.56,2.44 -8.57,2.45 6.73,2.45 -3.06,2.45 -12.85,2.45 7.34,2.44 -12.24,2.45 -2.45,2.45 -17.74,2.45 12.23,2.45 -14.68,2.44 5.5,2.45 0,2.45 0.62,2.45 -14.69,2.45 -7.96,2.44 15.3,2.45 6.12,2.45 -18.36,2.45 -8.56,2.45 6.11,2.45 5.51,2.44 -20.8,2.45 15.91,2.45 -16.53,2.44 18.97,2.45 2.45,2.45 -19.58,2.45 -15.3,2.45 16.52,2.45 -1.22,2.45 -18.97,2.44 18.97,2.45 -9.79,2.45 -12.24,2.44 32.43,2.45 7.96,2.45 -20.2,2.45 7.96,2.45 -1.84,2.45 -11.01,2.44 8.56,2.45 22.65,2.45 -18.97,2.45 23.86,2.45 -7.95,2.44 -2.45,2.45 7.96,2.45 11.62,2.45 8.57,2.45 -33.05,2.44 22.04,2.45 28.76,2.45 7.96,2.45 16.52,2.45 -29.38,2.44 18.36,2.45 2.45,2.45 7.35,2.45 -3.07,2.45 14.08,2.44 0,2.45 9.18,2.45 3.67,2.45 1.23,2.45 -3.06,2.45 3.67,2.44 12.24,2.45 14.08,2.45 -6.74,2.44 23.26,2.45 -21.42,2.45 18.36,2.45 -7.96,2.45 41.01,2.45 -29.38,2.45 20.81,2.44 -9.79,2.45 0.61,2.45 12.24,2.45 0.61,2.44 3.06,2.45 -8.56,2.45 14.68,2.45 3.06,2.45 -7.34,2.44 4.89,2.45 18.36,2.45 -3.06,2.45 8.57,2.45 -14.07,2.44 -4.29,2.45 -12.24,2.45 4.29,2.45 -4.29,2.45 20.81,2.44 -15.3,2.45 8.57,2.45 -7.35,2.45 -1.83,2.45 6.12,2.45 -1.22,2.44 -19.59,2.45 -3.06,2.45 3.67,2.45 -13.46,2.44 15.91,2.45 -20.81,2.45 20.81,2.45 -27.54,2.45 4.9,2.45 -20.81,2.44 11.01,2.45 1.23,2.45 -28.16,2.44 2.45,2.45 0,2.45 -14.07,2.45 1.84,2.45 7.34,2.45 -14.08,2.44 6.74,2.45 -14.7,2.45 -6.11,2.45 -8.57,2.45 -8.57,2.44 2.45,2.45 -1.23,2.45 -7.95,2.45 -4.9,2.45 4.29,2.44 -12.86,2.45 7.96,2.45 -20.81,2.45 8.57,2.45 -4.89,2.44 6.11,2.45 6.12,2.45 -13.46,2.45 2.45,2.45 11.01,2.44 -23.25,2.45 0.61,2.45 9.79,2.45 -20.19,2.45 17.74,2.45 6.74,2.44 -13.47,2.45 9.8,2.45 4.89,2.44 -4.89,2.45 -1.84,2.45 6.12,2.45 13.46,2.45 6.74,2.45 -0.62,2.45 -0.61,2.44 2.45,2.45 9.18,2.45 7.34,2.44 22.65,2.45 10.4,2.45 -12.85,2.45 -6.12,2.45 0,2.45 30.6,2.44 4.89,2.45 -4.89,2.45 11.01,2.45 11.02,2.45 7.96,2.44 6.12,2.45 0.61,2.45 11.63,2.45 16.52,2.45 -3.06,2.44 -7.34,2.45 18.97,2.45 13.46,2.45 8.57,2.45 17.75,2.44 -4.28,2.45 -12.86,2.45 33.66,2.45 -1.22,2.45 3.67,2.44 -4.28,2.45 20.8,2.45 -8.56,2.45 4.28,2.45 3.67,2.45 14.69,2.44 8.57,2.45 0.61,2.45 6.12,2.44 1.84,2.45 4.89,2.45 22.65,2.45 0.61,2.45 4.89,2.45 -3.05,2.45 8.56,2.44 13.47,2.45 2.45,2.45 -2.45,2.45 -1.23,2.44 4.29,2.45 -0.61,2.45 -4.29,2.45 20.81,2.45 -5.51,2.44 18.36,2.45 -24.48,2.45 29.99,2.45 -18.97,2.45 4.28,2.44 0.61,2.45 6.12,2.45 12.85,2.45 4.29,2.45 -21.42,2.44 21.42,2.45 4.89,2.45 -11.01,2.45 -14.69,2.45 4.89,2.45 12.86,2.44 -0.61,2.45 -6.74,2.45 -0.61,2.45 12.85,2.44 -5.5,2.45 -4.9,2.45 -4.28,2.45 6.73,2.45 1.22,2.45 -9.18,2.44 6.12,2.45 12.85,2.45 -7.95,2.44 1.84,2.45 -1.23,2.45 3.67,2.45 -6.73,2.45 -3.67,2.45 -4.29,2.45 12.25,2.44 -0.62,2.45 -14.08,2.45 -9.78,2.45 20.8,2.44 -4.89,2.45 -11.02,2.45 -9.79,2.45 -0.61,2.45 7.95,2.44 1.84,2.45 -8.57,2.45 -4.89,2.45 7.95,2.45 2.45,2.44 -9.18,2.45 6.12,2.45 -4.9,2.45 7.34,2.45 -15.29,2.44 -5.51,2.45 4.89,2.45 -19.58,2.45 7.96,2.45 3.05,2.45 9.19,2.44 -12.86,2.45 8.57,2.45 -2.45,2.44 -12.23,2.45 9.78,2.45 -3.05,2.45 -15.3,2.45 10.4,2.45 -2.45,2.45 -7.95,2.44 1.22,2.45 -17.75,2.45 12.85,2.44 -2.44,2.45 11.62,2.45 -18.97,2.45 0,4.9 -5.51,2.44 -5.51,2.45 13.47,2.45 -12.24,2.45 -4.9,2.45 2.45,2.44 -0.61,2.45 -0.61,2.45 -4.29,2.45 3.68,2.45 5.5,2.44 -15.3,2.45 7.96,2.45 -8.57,2.45 -6.73,2.45 1.84,2.44 -3.06,2.45 -1.23,2.45 -11.63,2.45 -0.61,2.45 -2.45,2.44 4.9,2.45 2.45,2.45 0.61,2.45 -6.73,2.45 -1.23,2.45 -11.62,2.44 2.44,2.45 14.08,2.45 -20.81,2.44 -3.06,2.45 3.68,2.45 -15.31,2.45 3.06,2.45 13.47,2.45 -9.79,2.45 0,2.44 -9.18,2.45 5.5,2.45 -11.63,2.45 14.08,2.44 -7.34,2.45 -14.08,2.45 8.57,2.45 0,2.45 -17.75,2.44 -3.06,2.45 7.35,2.45 8.56,2.45 -9.18,2.45 -1.83,2.44 10.4,2.45 -18.97,2.45 -4.9,2.45 -6.12,2.45 4.9,2.44 7.34,2.45 -9.18,2.45 -2.45,2.45 -12.23,2.45 3.05,2.45 11.63,2.44 -19.58,2.45 11.63,2.45 -10.41,2.44 7.96,2.45 -1.23,2.45 -20.8,2.45 18.97,2.45 2.45,2.45 4.28,2.45 -18.97,2.44 1.22,2.45 -4.28,2.45 9.79,2.44 -1.83,2.45 -1.23,2.45 4.29,2.45 -7.96,2.45 4.29,2.45 -25.1,2.45 25.71,2.44 -6.12,2.45 -7.96,2.45 25.09,2.45 -12.24,2.44 -1.22,2.45 -7.34,2.45 -7.35,2.45 5.51,2.45 -6.12,2.44 1.83,2.45 -3.06,2.45 24.48,2.45 -15.29,2.45 2.44,2.44 -2.44,2.45 4.28,2.45 7.34,2.45 -1.83,2.45 -8.57,2.44 -2.45,2.45 4.28,2.45 0,2.45 5.51,2.45 3.67,2.45 -23.86,2.44 12.24,2.45 15.91,2.45 -17.75,2.44 -1.22,2.45 0,2.45 14.07,2.45 -12.24,2.45 1.84,2.45 9.18,2.45 -14.69,2.44 11.02,2.45 -7.35,2.45 20.2,2.44 -12.24,2.45 5.51,2.45 -12.24,2.45 25.09,2.45 -14.08,2.45 -13.46,2.44 9.79,2.45 4.28,2.45 7.96,2.45 -0.61,2.45 -2.45,2.44 -3.67,2.45 10.4,2.45 -7.95,2.45 -4.29,2.45 -3.06,2.44 11.02,2.45 -4.9,2.45 -1.22,2.45 6.73,2.45 -6.73,2.44 2.45,2.45 3.05,2.45 -6.73,2.45 -13.46,2.44 17.75,2.45 4.28,2.45 -19.58,2.45 9.18,2.45 6.73,2.45 -1.84,2.45 9.8,2.44 -9.8,2.45 -3.06,2.45 11.02,2.44 0,2.45 2.45,2.45 -14.69,2.45 0.61,2.45 -3.67,2.45 12.85,2.44 -7.34,2.45 3.06,2.45 4.89,2.45 -8.56,2.45 2.44,2.44 2.45,2.45 0,2.45 7.96,2.45 -4.29,2.45 4.9,2.44 -12.24,2.45 1.22,2.45 -9.18,2.45 12.25,2.45 -7.96,2.44 12.85,2.45 -15.91,2.45 11.02,2.45 -5.51,2.45 0.61,2.44 10.4,2.45 -5.5,2.45 7.95,2.45 -1.22,2.45 1.83,2.45 2.45,2.44 -2.45,2.45 -3.06,2.45 -9.79,2.44 12.85,2.45 -5.51,2.45 3.68,2.45 1.83,2.45 -4.89,2.45 6.73,2.45 -3.06,2.44 -8.57,2.45 7.34,2.45 4.9,2.44 -5.51,2.45 3.67,2.45 5.51,2.45 -4.9,2.45 -2.44,2.45 6.73,2.44 4.89,2.45 -7.34,2.45 11.02,2.45 -0.61,2.45 -4.29,2.44 4.29,2.45 -8.57,2.45 10.4,2.45 -5.51,2.45 7.96,2.44 8.57,2.45 -9.79,2.45 2.44,2.45 -6.73,2.45 -3.06,2.44 4.9,2.45 12.85,2.45 -0.61,2.45 1.22,2.45 -1.84,2.44 -21.41,2.45 28.76,2.45 -10.4,2.45 -4.29,2.45 -3.67,2.45 3.06,2.44 0,2.45 3.67,2.45 0,2.44 2.45,2.45 0,2.45 7.34,2.45 -3.06,2.45 12.24,2.45 -5.51,2.45 -2.44,2.44 0,2.45 6.12,2.45 7.95,2.44 -15.3,2.45 18.98,2.45 -12.24,2.45 -6.74,2.45 14.69,2.45 -15.3,2.44 3.68,2.45 -0.62,2.45 4.29,2.45 1.83,2.45 1.84,2.44 1.83,2.45 -12.85,2.45 6.73,2.45 4.29,2.45 22.03,2.44 -20.2,2.45 6.74,2.45 0.61,2.45 0,2.45 -11.02,2.44 3.67,2.45 1.23,2.45 -1.23,2.45 2.45,2.45 -5.51,2.44 -0.61,2.45 11.63,2.45 -2.45,2.45 4.29,2.45 -12.86,2.45 2.45,2.44 -1.22,2.45 5.51,2.45 -1.23,2.44 -4.28,2.45 8.57,2.45 -14.08,2.45 -3.06,2.45 5.51,2.45 3.06,2.45 -5.51,2.44 6.73,2.45 0.61,2.45 0.61,2.45 3.68,2.44 -6.73,2.45 -6.73,2.45 3.67,2.45 7.34,2.45 4.9,2.44 -9.18,2.45 0.61,2.45 -5.51,2.45 0,2.45 4.9,2.44 -1.23,2.45 -4.9,2.45 6.74,2.45 -7.34,2.45 3.67,2.44 -1.23,2.45 0.61,2.45 -3.67,2.45 6.73,2.45 4.9,2.45 -4.28,2.44 0,2.45 -3.68,2.45 6.12,2.45 -4.28,2.44 2.45,2.45 -1.23,2.45 1.23,2.45 -2.45,2.45 3.67,2.45 -1.83,2.44 2.44,2.45 -3.06,2.45 -1.83,2.44 9.79,2.45 -1.84,2.45 -3.67,2.45 0.61,2.45 -3.06,2.45 17.75,2.45 -11.63,2.44 -1.83,2.45 -4.29,2.45 0,2.45 9.8,2.44 2.44,2.45 -9.18,2.45 0,2.45 -4.89,2.45 14.07,2.44 -16.52,2.45 7.34,2.45 13.47,2.45 -8.57,2.45 -4.29,2.44 10.41,2.45 -11.02,2.45 6.13,2.45 2.44,2.45 4.29,2.44 -7.96,2.45 5.51,2.45 2.45,2.45 0.61,2.45 -2.45,2.45 3.06,2.44 -7.34,2.45 -4.29,2.45 6.73,2.44 -6.12,2.45 2.45,2.45 6.73,2.45 1.84,2.45 0.61,2.45 -9.79,2.45 11.02,2.44 -11.02,2.45 -3.67,2.45 1.83,2.44 3.68,2.45 -1.84,2.45 4.9,2.45 0,2.45 2.44,2.45 -9.18,2.44 1.84,2.45 6.73,2.45 -17.13,2.45 11.01,2.45 2.45,2.44 -9.18,2.45 8.57,2.45 11.63,2.45 -12.85,2.45 2.44,2.44 0,7.35 4.9,2.45 4.89,2.44 -4.28,2.45 -4.28,2.45 -4.9,2.45 0,2.45 5.51,2.44 -0.61,2.45 3.06,2.45 4.28,2.45 -5.51,2.45 -9.79,2.45 2.45,2.44 9.79,2.45 -18.36,2.45 18.97,2.44 -2.45,2.45 -3.06,2.45 -3.05,2.45 0,2.45 5.5,2.45 -0.61,2.45 -17.14,2.44 9.18,2.45 -3.67,2.45 10.41,2.45 -4.9,2.44 -3.06,2.45 -13.46,2.45 8.56,2.45 4.29,2.45 -1.84,2.44 1.84,2.45 3.06,2.45 -14.08,2.45 3.06,2.45 11.63,2.44 -4.29,2.45 -4.28,2.45 -3.06,2.45 0.61,2.45 -4.89,2.44 10.4,2.45 -14.07,2.45 10.4,2.45 -12.24,2.45 3.06,2.45 14.07,2.44 -3.67,2.45 -4.28,2.45 -5.51,2.45 3.68,2.44 -4.29,2.45 6.73,2.45 -3.06,2.45 4.29,2.45 0.61,2.45 -1.84,2.44 -4.89,2.45 6.12,2.45 -9.18,2.44 0.61,2.45 2.45,2.45 -1.23,2.45 1.84,2.45 6.73,2.45 -13.47,2.45 2.45,2.44 4.9,2.45 -9.79,2.45 -1.84,2.45 7.35,2.44 0,2.45 1.83,2.45 -2.45,2.45 0.62,2.45 7.34,2.44 -6.73,2.45 -1.23,2.45 -2.45,2.45 -3.05,2.45 1.22,2.44 3.06,2.45 3.06,2.45 -6.12,2.45 0,4.89 4.28,2.45 -4.89,2.45 -15.3,2.45 18.36,2.45 -6.73,2.45 -6.74,2.44 4.9,2.45 6.73,2.45 -4.28,2.45 -0.61,2.44 -1.84,2.45 -8.57,2.45 13.47,2.45 -6.12,2.45 -3.06,2.45 11.63,2.44 -13.47,2.45 8.57,2.45 -5.51,2.44 1.84,2.45 -7.35,2.45 10.41,2.45 -4.29,2.45 8.57,2.45 -10.4,2.44 6.73,2.45 0.61,2.45 -9.18,2.45 4.9,2.45 7.34,2.44 -9.18,2.45 1.84,2.45 9.79,2.45 -8.57,2.45 -6.73,2.44 -1.23,2.45 6.74,2.45 -3.68,2.45 9.18,2.45 -7.34,2.44 -0.61,2.45 -9.18,2.45 6.73,2.45 3.67,2.45 1.84,2.44 -1.84,2.45 -14.69,2.45 15.92,2.45 3.06,2.45 -12.24,2.45 11.01,2.44 1.84,2.45 -16.53,2.45 6.12,2.44 0,2.45 12.24,2.45 -14.68,2.45 3.67,2.45 -2.45,2.45 -2.45,2.45 9.8,2.44 -3.07,2.45 1.84,2.45 -4.9,2.45 1.23,2.44 3.67,2.45 -10.4,2.45 12.85,2.45 -11.63,2.45 13.46,2.44 -4.28,2.45 3.06,2.45 -11.63,2.45 4.28,2.45 6.13,2.44 -7.96,2.45 15.91,2.45 -14.08,2.45 11.63,2.45 -16.52,2.44 0.61,2.45 15.91,2.45 0,2.45 -15.91,2.45 12.85,2.45 -4.28,2.44 14.08,2.45 -11.63,2.45 -2.45,2.45 -3.67,2.44 13.46,2.45 -4.89,2.45 -4.29,2.45 7.35,2.45 -11.02,2.45 20.2,2.44 -13.47,2.45 3.06,2.45 -7.34,2.44 8.57,2.45 3.67,2.45 -1.84,2.45 0,2.45 4.29,2.45 -6.74,2.45 -4.89,2.44 -0.61,2.45 7.95,2.45 -9.18,2.45 5.51,2.44 8.57,2.45 -4.28,2.45 -7.35,2.45 4.9,2.45 1.22,2.44 3.67,2.45 -6.12,2.45 7.35,2.45 1.22,2.45 -8.57,2.44 9.18,2.45 -8.57,2.45 4.9,2.45 -0.61,2.45 6.73,2.44 -2.45,2.45 -11.01,2.45 7.95,2.45 -6.73,2.45 4.29,2.45 -4.9,2.44 6.73,2.45 -3.67,2.45 3.06,2.44 12.24,2.45 -9.18,2.45 -2.45,2.45 -3.67,2.45 9.18,2.45 -3.06,2.45 5.5,2.44 -6.11,2.45 4.89,2.45 4.9,2.44 -9.79,2.45 -1.84,2.45 0.61,2.45 0.61,2.45 0.62,2.45 1.83,2.45 3.06,2.44 2.45,2.45 -7.96,2.45 11.02,2.45 -4.89,2.44 9.78,2.45 -12.85,2.45 -2.44,2.45 3.67,2.45 -3.67,2.44 11.62,2.45 -7.95,2.45 -6.12,2.45 0,2.45 17.13,2.44 -12.24,2.45 12.85,2.45 -18.36,2.45 6.13,2.45 1.22,2.44 -1.84,2.45 3.07,2.45 5.5,2.45 -9.18,2.45 0.61,2.45 4.9,2.44 -6.12,2.45 5.51,2.45 -0.62,2.44 -3.05,2.45 0.61,2.45 15.3,2.45 -21.42,2.45 4.28,2.45 2.45,2.45 10.4,2.44 -14.68,2.45 2.44,2.45 3.67,2.45 -5.5,2.44 17.75,2.45 -7.35,2.45 -5.5,2.45 9.17,2.45 -14.07,2.44 4.9,2.45 -1.23,2.45 12.24,2.45 -15.91,2.45 1.83,2.44 2.45,2.45 -1.83,2.45 -2.45,2.45 0,2.45 3.06,2.44 0,2.45 4.89,2.45 -4.89,2.45 0.61,2.45 0.61,2.45 7.35,2.44 -3.06,2.45 -4.9,2.45 -0.61,2.44 10.4,2.45 -16.52,2.45 3.67,2.45 3.06,2.45 2.45,2.45 4.89,2.45 -3.67,2.44 10.41,2.45 -3.68,2.45 -14.07,2.44 11.63,2.45 -0.62,2.45 -2.44,2.45 3.06,2.45 -7.96,2.45 6.73,2.45 -14.08,2.44 6.74,2.45 1.22,2.45 -9.79,2.45 8.57,2.44 -5.51,2.45 3.06,2.45 12.85,2.45 -18.97,2.45 18.36,2.44 -7.35,2.45 3.68,2.45 -1.23,2.45 1.84,2.45 -3.06,2.44 7.95,2.45 -6.73,2.45 -1.22,2.45 -5.51,2.45 1.23,2.44 -3.06,2.45 7.34,2.45 -0.61,2.45 3.06,2.45 -12.24,2.45 11.01,2.44 -1.22,2.45 -10.41,2.45 11.63,2.44 -2.45,2.45 0.62,2.45 -7.96,2.45 7.34,2.45 8.57,2.45 -15.91,2.45 2.45,2.44 0,2.45 15.91,2.45 -16.52,2.44 6.12,2.45 -4.29,2.45 9.8,2.45 -4.9,2.45 -3.67,2.45 -7.34,2.44 1.83,2.45 5.51,2.45 7.95,2.45 -7.34,2.45 0,2.44 1.83,2.45 0,4.9 -9.18,2.45 1.23,2.44 7.35,2.45 -7.96,2.45 7.96,2.45 -6.13,2.45 0,2.44 5.51,2.45 -3.67,2.45 5.51,2.45 0.61,2.45 -0.61,2.44 3.06,2.45 0,2.45 -11.63,2.45 0.61,2.45 3.67,2.45 11.63,2.44 -10.4,2.45 3.67,2.45 -12.24,2.44 4.28,2.45 5.51,2.45 -4.89,2.45 11.62,2.45 0,2.45 -10.4,2.45 7.34,2.44 -9.18,2.45 11.02,2.45 -9.79,2.45 7.95,2.44 -3.05,2.45 -4.9,2.45 -1.23,2.45 5.51,2.45 1.22,2.44 -10.4,2.45 6.12,2.45 0,2.45 8.57,2.45 -6.73,2.44 6.12,2.45 -6.12,2.45 -3.06,2.45 4.9,2.45 -3.07,2.44 -0.61,2.45 -3.06,2.45 3.06,2.45 -0.61,2.45 2.45,2.45 0,2.44 3.67,2.45 1.84,2.45 -9.8,2.45 6.73,2.44 -2.44,2.45 0,2.45 -3.06,2.45 4.9,2.45 5.5,2.45 -13.46,2.44 4.28,2.45 -3.06,2.45 7.96,2.44 -8.57,2.45 5.51,2.45 -3.06,2.45 -3.06,2.45 1.83,2.45 0,2.44 5.51,2.45 -3.06,2.45 5.51,2.45 -13.46,2.45 12.23,2.44 -13.46,2.45 9.18,2.45 -6.12,2.45 6.12,2.45 1.84,2.44 -3.67,2.45 3.06,2.45 -2.45,2.45 0,2.45 4.9,2.44 -6.74,2.45 -1.84,2.45 3.07,2.45 -1.23,2.45 -1.84,2.44 6.74,2.45 0,2.45 5.51,2.45 -12.25,2.45 4.29,2.45 0.61,2.44 -1.83,2.45 -3.07,2.45 11.63,2.44 -6.12,2.45 -4.28,2.45 6.12,2.45 -5.51,2.45 1.23,2.45 0.61,2.45 4.9,2.44 0.6,2.45 -6.11,2.45 -6.12,2.44 8.56,2.45 0.62,2.45 -3.06,2.45 1.83,2.45 -2.45,2.45 -2.45,2.44 6.13,2.45 2.45,2.45 -7.35,2.45 3.06,2.45 -1.84,2.44 2.45,2.45 -4.28,2.45 -4.29,2.45 7.35,2.45 -0.61,2.44 0,2.45 -4.29,2.45 1.22,2.45 7.35,2.45 -10.4,2.44 8.56,2.45 -11.01,2.45 7.95,2.45 -1.83,2.45 2.45,2.44 -5.51,2.45 5.51,2.45 1.22,2.45 -4.89,2.45 -0.62,2.45 7.35,2.44 1.22,2.45 -11.63,2.45 9.79,2.44 -6.11,2.45 -1.23,2.45 6.73,2.45 -2.45,2.45 -2.45,2.45 -5.5,2.45 5.5,2.44 9.8,2.45 -7.35,2.45 -4.28,2.45 3.67,2.44 0,2.45 -3.67,2.45 3.06,2.45 6.73,2.45 -14.07,2.44 6.11,2.45 5.51,2.45 -1.22,2.45 -1.84,2.45 -10.4,2.44 4.9,2.45 1.22,2.45 7.96,2.45 -12.86,2.45 7.35,2.44 0.61,2.45 1.22,2.45 0,2.45 -1.83,2.45 3.67,2.45 -1.22,2.44 1.83,2.45 0.61,2.45 1.23,2.45 -9.79,2.44 0,2.45 7.95,2.45 -10.4,2.45 0.61,2.45 5.51,2.45 -1.84,2.44 3.67,2.45 6.13,2.45 -12.25,2.44 14.08,2.45 -14.69,2.45 1.84,2.45 7.95,2.45 -6.11,2.45 3.67,2.45 0.61,2.44 -6.73,2.45 2.45,2.45 1.22,2.45 -3.06,2.44 2.44,2.45 7.35,2.45 0,2.45 -7.95,2.45 6.73,2.44 -3.06,2.45 5.51,2.45 -1.23,2.45 -11.02,2.45 3.67,2.44 6.74,2.45 -11.63,2.45 7.96,2.45 0.61,2.45 1.22,2.44 5.51,2.45 -6.73,2.45 -2.45,2.45 -3.06,2.45 6.73,2.45 -0.61,2.44 1.84,2.45 -1.23,2.45 2.45,2.44 -4.9,2.45 0,2.45 8.57,2.45 -12.85,2.45 11.01,2.45 -4.89,2.45 6.73,2.44 -9.79,2.45 -1.23,2.45 -5.5,2.44 4.28,2.45 1.84,2.45 -3.06,2.45 3.67,2.45 5.51,2.45 -4.9,2.44 -1.22,2.45 5.51,2.45 -9.8,2.45 6.74,2.45 -3.07,2.44 4.29,2.45 -4.29,2.45 3.07,2.45 3.06,2.45 -3.68,2.44 -2.45,2.45 3.07,2.45 1.22,2.45 0.61,2.45 -7.95,2.44 6.73,2.45 0.61,2.45 -8.57,2.45 5.51,2.45 7.95,2.44 -5.5,2.45 1.83,2.45 -1.83,2.45 -0.61,2.45 3.67,2.45 0,2.44 -3.67,2.45 1.83,2.45 -3.06,2.44 3.06,2.45 3.68,2.45 1.22,2.45 -11.63,2.45 9.18,2.45 -9.79,2.45 2.44,2.44 3.07,2.45 6.11,2.45 -0.6,2.45 3.67,2.44 -6.74,2.45 -4.89,2.45 4.89,2.45 1.84,2.45 0,2.44 -7.95,2.45 9.18,2.45 -10.41,2.45 13.46,2.45 -1.22,2.44 -3.06,2.45 0,2.45 0.61,2.45 -3.67,2.45 7.34,2.44 -10.4,2.45 3.06,2.45 -1.84,2.45 0.62,2.45 14.68,2.45 -12.24,2.44 -1.22,2.45 6.73,2.45 -3.67,2.44 -3.06,2.45 -2.45,2.45 3.06,2.45 3.68,2.45 -1.23,2.45 -1.84,2.45 4.9,2.44 -0.61,2.45 -3.67,2.45 -3.06,2.44 1.22,2.45 1.22,2.45 -1.22,2.45 0,2.45 3.06,2.45 -4.28,2.44 0,2.45 -1.84,2.45 11.63,2.45 -7.96,2.45 3.68,2.44 -1.23,2.45 5.51,2.45 -4.9,2.45 -5.51,2.45 -1.83,2.44 6.73,2.45 7.96,2.45 -6.73,2.45 -9.8,2.45 11.02,2.44 -4.9,2.45 6.12,2.45 -6.12,2.45 -1.83,2.45 9.79,2.44 -4.28,2.45 -5.51,2.45 0.61,2.45 -1.84,2.45 -1.84,2.45 9.8,2.44 -7.35,2.45 4.29,2.45 0,2.44 3.67,2.45 -4.28,2.45 -5.51,2.45 6.12,2.45 -5.51,2.45 2.45,2.45 3.67,2.44 -2.45,2.45 -2.45,2.45 2.45,2.44 0.61,2.45 5.51,2.45 -3.67,2.45 -6.73,2.45 1.22,2.45 0.61,2.44 2.45,2.45 6.73,2.45 -6.73,2.45 -1.22,2.45 4.9,2.44 3.67,2.45 -3.07,2.45 -5.5,2.45 1.83,2.45 -4.28,2.44 6.73,2.45 -0.61,2.45 3.67,2.45 -1.84,2.45 -6.11,2.44 4.28,2.45 -2.45,2.45 -4.9,2.45 6.13,2.45 6.12,2.44 -8.57,2.45 4.28,2.45 -2.45,2.45 -1.22,2.45 3.67,2.45 -4.89,2.44 -4.29,2.45 3.67,2.45 -5.5,2.44 6.73,2.45 0,2.45 -0.61,2.45 3.06,2.45 -4.9,2.45 -2.45,2.45 0.62,2.44 0.6,2.45 -0.6,2.45 3.05,2.45 2.45,2.44 -6.12,2.45 8.57,2.45 1.83,2.45 3.07,2.45 -10.41,2.44 -1.22,2.45 1.83,2.45 2.45,2.45 -0.61,2.45 -1.22,2.44 -1.84,2.45 3.67,2.45 -2.45,2.45 -1.22,2.45 -1.23,2.44 3.07,2.45 4.89,2.45 -7.96,2.45 4.9,2.45 1.23,2.45 -2.45,2.44 6.73,2.45 2.45,2.45 -8.57,2.45 3.06,2.44 -12.24,2.45 7.34,2.45 4.9,2.45 1.23,2.45 1.83,2.45 -3.67,2.44 -1.84,2.45 -4.28,2.45 0,2.44 7.34,2.45 0.62,2.45 -2.45,2.45 -1.84,2.45 -1.22,2.45 -3.67,2.45 4.28,2.44 -0.61,2.45 3.67,2.45 -7.34,2.45 6.11,2.44 -6.73,2.45 7.35,2.45 -4.9,2.45 6.73,2.45 -7.34,2.44 6.73,2.45 -4.28,2.45 0,2.45 -3.07,2.45 6.74,2.44 -1.84,2.45 3.06,2.45 -3.06,2.45 6.12,2.45 -11.62,2.44 7.95,2.45 -3.67,2.45 -6.12,2.45 8.57,2.45 -5.51,2.45 1.22,2.44 1.23,2.45 7.95,2.45 -4.89,2.45 0.61,2.44 -7.34,2.45 -1.84,2.45 7.34,2.45 -0.61,2.45 -4.29,2.45 3.07,2.44 3.67,2.45 -0.61,2.45 -3.06,2.44 0.61,2.45 6.73,2.45 0.61,2.45 0,2.45 0.61,2.45 -7.34,2.45 3.06,2.44 -4.28,2.45 0,2.45 1.83,2.45 2.45,2.44 -7.95,2.45 3.67,2.45 7.34,2.45 -8.57,2.45 0,2.44 2.45,2.45 -2.45,2.45 9.18,2.45 -4.89,2.45 -2.45,2.44 2.45,2.45 0.61,2.45 -11.02,2.45 12.24,2.45 -6.12,2.44 7.96,2.45 -7.96,2.45 0.61,2.45 7.35,2.45 -7.96,2.45 -2.44,2.44 6.11,2.45 -1.83,2.45 -6.12,2.44 9.79,2.45 2.45,2.45 -4.9,2.45 2.45,2.45 0,2.45 -3.06,2.45 -4.89,2.44 4.28,2.45 3.06,2.45 -6.12,2.45 2.45,2.44 0.61,2.45 5.5,2.45 -7.95,2.45 0.61,2.45 -1.22,2.44 2.45,2.45 0.61,2.45 -5.51,2.45 2.45,2.45 7.96,2.44 -4.29,2.45 1.22,2.45 0.62,2.45 3.05,2.45 -7.95,2.44 -1.23,2.45 5.51,2.45 4.9,2.45 -5.51,2.45 -6.73,2.45 7.34,2.44 -1.83,2.45 1.83,2.45 -4.89,2.44 3.06,2.45 -1.84,2.45 -1.84,2.45 13.47,2.45 -9.79,2.45 1.22,2.45 -1.83,2.44 5.51,2.45 -5.51,2.45 -3.67,2.44 4.28,2.45 0.61,2.45 4.89,2.45 -8.56,2.45 0.61,2.45 -0.61,2.44 4.28,2.45 -3.67,2.45 4.9,2.45 -4.9,2.45 7.35,2.44 -1.84,2.45 0,2.45 -4.9,2.45 3.06,2.45 -1.22,2.44 0.61,2.45 3.06,2.45 -3.06,2.45 2.45,2.45 -2.45,2.44 0.61,2.45 4.9,2.45 0,2.45 -11.02,2.45 11.02,2.44 -6.12,2.45 -3.68,2.45 0,2.45 4.9,2.45 -2.45,2.45 5.51,2.44 -3.06,2.45 -5.5,2.45 4.89,2.44 1.22,2.45 1.23,2.45 -4.29,2.45 -2.45,2.45 3.07,2.45 0,2.45 -1.84,2.44 1.22,2.45 6.73,2.45 -7.34,2.44 -3.06,2.45 6.12,2.45 -7.95,2.45 7.95,2.45 -4.28,2.45 -1.84,2.44 1.84,2.45 0,2.45 1.83,2.45 2.45,2.45 -11.63,2.44 13.47,2.45 -1.23,2.45 -3.06,2.45 -7.95,2.45 5.5,2.44 0.62,2.45 -0.62,2.45 1.23,2.45 4.9,2.45 0.61,2.44 -0.61,2.45 -2.45,2.45 -1.84,2.45 6.74,2.45 -4.9,2.44 -0.61,2.45 -2.45,2.45 6.73,2.45 -3.06,2.45 1.84,2.45 4.89,2.44 -0.61,2.45 -3.06,0.61"
     style="fill:none;stroke:#000000;stroke-opacity:1;stroke-width:9.18;stroke-linecap:butt;stroke-linejoin:miter;stroke-miterlimit:10;stroke-dasharray:none"
     id="path3018" /><path
     d="m 5202,918 0,1150.56 -0.61,2.45 0,2.45 -1.23,2.44 -2.45,2.45 -3.05,2.45 -10.41,2.45 -7.34,2.45 -22.03,2.44 -36.72,2.45 -47.74,2.45 -69.15,2.45 -94.25,2.45 -168.91,2.44 -170.14,2.45 -283.97,2.45 -361.08,2.45 -341.49,2.45 -467.57,2.44 -589.36,2.45 -516.53,2.45 -711.14,2.45 -379.443,1.22"
     style="fill:none;stroke:#ff0000;stroke-opacity:1;stroke-width:9.18;stroke-linecap:butt;stroke-linejoin:miter;stroke-miterlimit:10;stroke-dasharray:none"
     id="path3020" /><path
     d="m 917.387,2188.51 210.533,2.45 310.89,2.45 331.71,2.45 283.35,2.44 219.1,2.45 154.83,2.45 227.67,2.45 165.85,2.45 173.81,2.44 201.96,2.45 86.9,2.45 107.1,2.45 138.31,2.45 145.66,2.45 81.4,2.44 39.16,2.45 80.18,2.45 89.96,2.44 105.88,2.45 20.19,2.45 102.21,2.45 12.85,2.45 41,2.45 52.02,2.45 33.05,2.44 40.39,2.45 14.08,2.45 21.42,2.44 19.58,2.45 45.9,2.45 13.47,2.45 2.44,2.45 50.8,2.45 18.36,2.44 -14.08,2.45 58.75,2.45 -20.8,2.45 34.27,2.45 14.69,2.44 6.73,2.45 6.12,2.45 9.79,2.45 25.7,2.45 -35.49,2.44 45.9,2.45 1.22,2.45 -0.61,2.45 27.54,2.45 4.29,2.44 5.51,2.45 -13.47,2.45 7.96,2.45 18.36,2.45 27.54,2.44 -20.2,2.45 -4.9,2.45 -2.44,2.45 18.97,2.45 -7.35,2.45 -4.28,2.44 8.57,2.45 3.06,2.45 -34.27,2.44 37.94,2.45 -6.12,2.45 -5.51,2.45 -15.3,2.45 1.22,2.45 11.63,2.45 -3.67,2.44 0,2.45 11.02,2.45 -10.4,2.44 7.34,2.45 -10.41,2.45 0.62,2.45 4.28,2.45 -0.61,2.45 -1.22,2.44 -20.2,2.45 -6.12,2.45 -2.45,2.45 1.22,2.45 5.51,2.44 2.45,2.45 -20.2,2.45 11.63,2.45 1.84,2.45 -31.21,2.44 35.49,2.45 -7.95,2.45 -23.87,2.45 -2.45,2.45 2.45,2.44 -14.69,2.45 -6.73,2.45 -14.69,2.45 -5.51,2.45 -12.24,2.44 25.71,2.45 -44.68,2.45 7.95,2.45 -16.52,2.45 -25.09,2.45 9.18,2.44 -22.64,2.45 -15.3,2.45 -28.16,2.44 -3.06,2.45 3.68,2.45 -29.38,2.45 -16.53,2.45 -30.59,2.45 -26.93,2.45 1.83,2.44 -44.67,2.45 -11.63,2.45 -21.42,2.45 -4.89,2.44 -15.92,2.45 -39.78,2.45 -27.54,2.45 -25.09,2.45 31.21,2.44 -18.36,2.45 3.06,2.45 -23.87,2.45 -12.85,2.45 -1.22,2.44 -4.9,2.45 12.85,2.45 -25.09,2.45 -5.5,2.45 4.89,2.44 11.02,2.45 18.97,2.45 -17.14,2.45 22.65,2.45 -14.69,2.45 -11.63,2.44 18.36,2.45 6.12,2.45 17.14,2.44 -3.67,2.45 -0.62,2.45 -5.51,2.45 17.75,2.45 7.96,2.45 8.57,2.45 -14.08,2.44 35.5,2.45 3.05,2.45 -10.4,2.44 -7.34,2.45 14.69,2.45 -11.63,2.45 9.79,2.45 -4.29,2.45 3.07,2.45 -11.02,2.44 31.83,2.45 3.67,2.45 8.56,2.45 -34.88,2.44 15.91,2.45 -4.89,2.45 12.24,2.45 23.25,2.45 -13.46,2.44 -6.12,2.45 -26.93,2.45 50.18,2.45 2.45,2.45 5.51,2.44 -18.36,2.45 17.14,2.45 -6.74,2.45 15.91,2.45 -20.8,2.44 0.61,2.45 29.99,2.45 11.01,2.45 -20.19,2.45 20.19,2.45 -9.18,2.44 -6.73,2.45 4.9,2.45 9.18,2.44 -33.66,2.45 53.24,2.45 -41.61,2.45 -1.23,2.45 5.51,2.45 -2.45,2.45 -11.01,2.44 -3.06,2.45 7.95,2.45 -6.12,2.44 -0.61,2.45 -20.19,2.45 3.67,2.45 -6.12,2.45 -17.75,2.45 26.93,2.44 -0.62,2.45 -5.51,2.45 -17.74,2.45 -3.06,2.45 22.64,2.44 -13.46,2.45 -0.61,2.45 -1.84,2.45 -13.46,2.45 9.18,2.44 -14.69,2.45 -10.4,2.45 8.56,2.45 -3.67,2.45 17.75,2.44 -5.51,2.45 -25.09,2.45 20.81,2.45 -29.38,2.45 17.13,2.44 3.07,2.45 -6.12,2.45 15.91,2.45 4.89,2.45 -16.52,2.45 -0.61,2.44 7.96,2.45 -4.9,2.45 6.73,2.44 7.95,2.45 -18.96,2.45 14.68,2.45 -1.83,2.45 15.3,2.45 -15.3,2.45 17.13,2.44 -4.28,2.45 11.63,2.45 -27.55,2.45 23.88,2.44 3.05,2.45 1.23,2.45 7.34,2.45 1.23,2.45 5.5,2.44 -9.17,2.45 -0.62,2.45 2.45,2.45 9.79,2.45 -3.67,2.44 4.28,2.45 10.41,2.45 12.24,2.45 -15.3,2.45 6.73,2.44 -12.85,2.45 18.36,2.45 -16.53,2.45 -11.01,2.45 17.75,2.45 3.06,2.44 1.22,2.45 -20.81,2.45 -3.06,2.44 13.47,2.45 7.34,2.45 -30.6,2.45 6.73,2.45 -10.4,2.45 20.19,2.45 6.12,2.44 3.68,2.45 -39.78,2.45 23.25,2.44 -9.79,2.45 0.61,2.45 -14.07,2.45 12.85,2.45 -6.12,2.45 0.61,2.44 -7.34,2.45 6.73,2.45 -13.47,2.45 -0.61,2.45 -22.03,2.44 25.09,2.45 -18.97,2.45 -8.57,2.45 12.24,2.45 -3.67,2.44 -8.57,2.45 -14.69,2.45 3.06,2.45 -9.79,2.45 -4.28,2.44 -2.45,2.45 7.96,2.45 -20.81,2.45 23.87,2.45 -45.29,2.44 7.95,2.45 11.63,2.45 -10.4,2.45 -28.77,2.45 22.65,2.45 -19.59,2.44 -5.5,2.45 2.44,2.45 1.84,2.44 -18.97,2.45 -6.12,2.45 2.45,2.45 -4.9,2.45 10.4,2.45 -11.01,2.45 16.52,2.44 -33.05,2.45 -0.61,2.45 -14.69,2.44 20.81,2.45 -26.31,2.45 16.52,2.45 -17.14,2.45 -10.4,2.45 9.79,2.44 -11.63,2.45 7.35,2.45 -17.75,2.45 17.75,2.45 -6.74,2.44 -22.64,2.45 13.46,2.45 -18.35,2.45 -10.41,2.45 4.9,2.44 -19.58,2.45 5.5,2.45 20.81,2.45 -22.03,2.45 -15.3,2.44 -3.06,2.45 -10.41,2.45 29.38,2.45 -26.32,2.45 -1.22,2.44 -3.06,2.45 -4.28,2.45 9.18,2.45 -30.6,2.45 13.46,2.45 -12.85,2.44 25.09,2.45 -17.13,2.45 5.5,2.44 -6.73,2.45 -5.51,2.45 29.99,2.45 -25.09,2.45 6.73,2.45 22.03,2.45 -15.91,2.44 12.24,2.45 -5.51,2.45 23.87,2.45 -7.95,2.44 -5.51,2.45 6.11,2.45 -3.67,2.45 29.38,2.45 -13.46,2.44 3.06,2.45 -0.62,2.45 7.35,2.45 0,2.45 4.28,2.44 7.96,2.45 4.89,2.45 11.63,2.45 -14.07,2.45 -6.12,2.44 10.4,2.45 26.93,2.45 -20.81,2.45 3.67,2.45 -3.67,2.45 10.4,2.44 0.62,2.45 -9.18,2.45 -1.84,2.45 27.54,2.44 0,4.9 -8.57,2.45 -24.48,2.45 1.84,2.45 11.63,2.44 -14.69,2.45 28.15,2.45 -26.31,2.44 6.11,2.45 -7.34,2.45 -4.28,2.45 -12.24,2.45 3.06,2.45 -6.12,2.44 4.28,2.45 -2.45,2.45 -10.4,2.45 -11.02,2.45 6.12,2.44 -29.99,2.45 3.06,2.45 4.9,2.45 -20.81,2.45 4.29,2.44 6.73,2.45 2.45,2.45 -18.36,2.45 -6.12,2.45 0.61,2.44 14.07,2.45 -32.43,2.45 -3.06,2.45 11.01,2.45 15.92,2.44 -6.12,2.45 -33.66,2.45 4.28,2.45 4.28,2.45 -7.34,2.45 -7.34,2.44 -6.12,2.45 -5.51,2.45 13.46,2.44 -12.85,2.45 -10.4,2.45 4.28,2.45 -5.51,2.45 -10.4,2.45 -7.96,2.45 11.02,2.44 -28.16,2.45 4.9,2.45 -20.19,2.44 -4.29,2.45 -20.81,2.45 -14.07,2.45 21.42,2.45 -8.57,2.45 -15.3,2.44 -11.02,2.45 0.61,2.45 -10.4,2.45 7.35,2.45 -1.23,2.44 -36.72,2.45 9.79,2.45 17.75,2.45 -10.4,2.45 -10.41,2.44 12.24,2.45 -15.3,2.45 15.3,2.45 -12.85,2.45 21.42,2.44 -4.28,2.45 -13.47,2.45 25.1,2.45 -3.67,2.45 -26.93,2.44 36.1,2.45 -9.17,2.45 33.66,2.45 -16.53,2.45 20.81,2.45 -1.23,2.44 25.1,2.45 -7.96,2.45 2.45,2.44 31.82,2.45 1.84,2.45 16.52,2.45 -12.24,2.45 24.48,2.45 20.2,2.45 27.54,2.44 -9.79,2.45 22.64,2.45 14.69,2.45 17.75,2.44 -11.02,2.45 23.87,2.45 0.61,2.45 18.36,2.45 7.96,2.44 13.46,2.45 13.46,2.45 0,2.45 7.96,2.45 1.23,2.44 -0.62,2.45 24.48,2.45 11.63,2.45 -3.06,2.45 7.34,2.44 -6.11,2.45 14.68,2.45 -5.5,2.45 26.31,2.45 -11.02,2.45 11.02,2.44 4.28,2.45 -3.67,2.45 -2.45,2.45 9.8,2.44 -2.45,2.45 5.51,2.45 2.44,2.45 8.57,2.45 -20.81,2.45 14.08,2.44 6.12,2.45 -2.45,2.45 -0.61,2.44 -4.28,2.45 -9.18,2.45 -2.45,2.45 20.19,2.45 20.2,2.45 -10.4,2.45 -4.9,2.44 11.02,2.45 -30.6,2.45 15.3,2.45 10.4,2.44 -9.18,2.45 -3.06,2.45 7.34,2.45 14.08,2.45 2.45,2.44 -11.63,2.45 12.24,2.45 -6.12,2.45 6.12,2.45 -14.08,2.44 -2.44,2.45 23.25,2.45 -4.89,2.45 5.5,2.45 -5.5,2.44 14.07,2.45 -9.79,2.45 -0.61,2.45 17.13,2.45 -3.06,2.45 5.51,2.44 -22.64,2.45 -7.96,2.45 14.69,2.44 13.46,2.45 -25.7,2.45 12.24,2.45 23.87,2.45 -38.56,2.45 14.08,2.45 5.5,2.44 -6.11,2.45 -15.92,2.45 15.3,2.44 -25.09,2.45 15.91,2.45 6.13,2.45 -4.29,2.45 -2.45,2.45 -6.73,2.44 0.61,2.45 -8.57,2.45 -3.05,2.45 3.67,2.45 -17.14,2.44 -4.89,2.45 5.5,2.45 22.03,2.45 -22.64,2.45 10.4,2.44 -28.15,2.45 20.81,2.45 -12.85,2.45 -0.61,2.45 -14.08,2.44 -9.79,2.45 12.85,2.45 8.57,2.45 -18.97,2.45 1.22,2.44 -2.45,2.45 2.45,2.45 -10.4,2.45 -8.57,2.45 -9.79,2.45 1.22,2.44 1.22,2.45 -3.06,2.45 -11.63,2.44 1.84,2.45 -6.73,2.45 -7.34,2.45 12.85,2.45 -14.08,2.45 -6.73,2.45 -7.96,2.44 0.62,2.45 4.28,2.45 6.73,2.45 6.12,2.44 -4.28,2.45 -7.35,2.45 17.14,2.45 -17.75,2.45 -8.57,2.44 0.62,2.45 5.5,2.45 -3.06,2.45 12.24,2.45 8.57,2.44 -4.28,2.45 1.22,2.45 -10.4,2.45 37.94,2.45 -9.79,2.44 -5.51,2.45 -8.57,2.45 -1.83,2.45 6.73,2.45 4.9,2.45 -7.96,2.44 3.67,2.45 12.85,2.45 9.8,2.44 4.28,2.45 -17.75,2.45 5.51,2.45 2.45,2.45 -5.51,2.45 4.9,2.45 -6.13,2.44 14.08,2.45 -12.24,2.45 6.73,2.44 11.02,2.45 -1.84,2.45 7.96,2.45 -9.79,2.45 12.24,2.45 -4.28,2.45 -3.68,2.44 -9.18,2.45 20.2,2.45 -9.18,2.45 24.48,2.44 -12.86,2.45 0.62,2.45 -14.08,2.45 17.75,2.45 -5.51,2.44 -1.83,2.45 -2.45,2.45 1.83,2.45 -17.74,2.45 22.03,2.44 -18.97,2.45 29.98,2.45 -16.52,2.45 -15.3,2.45 0.61,2.44 17.75,2.45 -11.02,2.45 -13.46,2.45 20.81,2.45 -1.84,2.45 1.84,2.44 3.67,2.45 6.73,2.45 -1.83,2.44 -15.92,2.45 11.02,2.45 3.67,2.45 -6.73,2.45 -3.06,2.45 0.61,2.45 -0.61,2.44 4.9,2.45 -4.29,2.45 1.23,2.44 -10.41,2.45 12.24,2.45 3.68,2.45 -4.29,2.45 0,2.45 -8.57,2.44 -3.06,2.45 6.12,2.45 0,2.45 -4.89,2.45 9.18,2.44 -11.63,2.45 -3.06,2.45 15.91,2.45 -10.4,2.45 4.28,2.44 -3.06,2.45 -1.22,2.45 8.56,2.45 -3.05,2.45 4.89,2.44 -12.85,2.45 0,2.45 -0.61,2.45 -7.96,2.44 7.96,2.45 -1.84,2.45 24.48,2.45 -12.24,2.45 0,2.45 -3.67,2.45 2.45,2.44 -3.68,2.45 6.74,2.45 13.46,2.44 1.83,2.45 3.07,2.45 -19.59,2.45 11.63,2.45 1.84,2.45 -4.29,2.44 1.23,2.45 3.06,2.45 3.67,2.45 -2.45,2.45 15.91,2.44 -20.81,2.45 17.14,2.45 -4.9,2.45 -3.06,2.45 -4.89,2.44 -2.45,2.45 6.73,2.45 2.45,2.45 -10.4,2.45 8.56,2.44 3.06,2.45 1.84,2.45 7.35,2.45 -1.84,2.45 -10.41,2.44 7.96,2.45 -14.08,2.45 -9.18,2.45 20.2,2.45 0,2.45 -6.12,2.44 -9.79,2.45 -2.45,2.45 6.12,2.44 4.89,2.45 7.96,2.45 4.29,2.45 -19.59,2.45 3.06,2.45 -3.67,2.45 4.9,2.44 7.95,2.45 -15.91,2.45 5.51,2.44 1.83,2.45 0.62,2.45 2.44,2.45 -3.67,2.45 -9.18,2.45 19.59,2.44 -17.14,2.45 0.61,2.45 -8.56,2.45 14.07,2.45 -4.89,2.44 12.85,2.45 -18.36,2.45 -0.62,2.45 8.57,2.45 -4.89,2.44 3.67,2.45 3.67,2.45 3.67,2.45 -3.67,2.45 -4.89,2.44 2.44,2.45 0.61,2.45 -12.85,2.45 11.63,2.45 -13.46,2.44 17.74,2.45 -1.83,2.45 -4.9,2.45 -6.12,2.45 -1.22,2.45 -7.96,2.44 8.57,2.45 -0.61,2.45 9.79,2.44 -17.14,2.45 8.57,2.45 -3.67,2.45 -9.79,2.45 1.84,2.45 8.56,2.45 -18.36,2.44 10.41,2.45 -15.91,2.45 23.25,2.44 -20.2,2.45 0,2.45 3.68,2.45 -13.47,2.45 10.41,2.45 14.07,2.44 -22.03,2.45 -9.18,2.45 19.58,2.45 -9.18,2.45 0.62,2.44 -10.41,2.45 13.46,2.45 -12.85,2.45 6.74,2.45 -4.29,2.44 3.06,2.45 -6.12,2.45 -7.34,2.45 -2.45,2.45 18.36,2.44 -11.63,2.45 -4.89,2.45 4.89,2.45 1.84,2.45 -4.9,2.44 5.51,2.45 -10.41,2.45 14.7,2.45 -6.13,2.45 -7.34,2.45 2.45,2.44 6.73,2.45 -8.57,2.45 -1.84,2.44 3.07,2.45 1.83,2.45 -14.08,2.45 4.9,2.45 -4.9,2.45 14.08,2.45 -23.26,2.44 4.9,2.45 12.85,2.45 -3.67,2.45 -1.22,2.44 0.61,2.45 -2.45,2.45 -5.51,2.45 -2.44,2.45 2.44,2.44 -6.11,2.45 -8.57,2.45 6.73,2.45 1.22,2.45 -7.34,2.44 3.67,2.45 0,2.45 17.14,2.45 -10.41,2.45 -5.51,2.44 11.63,2.45 -22.64,2.45 7.34,2.45 -10.4,2.45 -0.61,2.45 13.46,2.44 3.67,2.45 -13.46,2.45 8.57,2.45 11.01,2.44 -13.46,2.45 -13.47,2.45 12.86,2.45 8.57,2.45 -4.9,2.45 -9.18,2.44 2.45,2.45 14.07,2.45 -6.12,2.44 -1.83,2.45 -12.24,2.45 4.28,2.45 0,2.45 14.07,2.45 -13.46,2.45 7.96,2.44 0.61,2.45 4.89,2.45 -3.05,2.45 6.12,2.44 -3.07,2.45 -10.4,2.45 3.06,2.45 4.29,2.45 -5.51,2.44 8.56,2.45 -0.6,2.45 -10.41,2.45 -1.22,2.45 7.34,2.44 0,2.45 0.61,2.45 -9.18,2.45 6.73,2.45 4.9,2.44 8.57,2.45 -15.3,2.45 0.61,2.45 2.45,2.45 -0.61,2.45 -8.57,2.44 -2.45,2.45 12.24,2.45 -10.4,2.44 -7.96,2.45 6.73,2.45 10.41,2.45 -6.74,2.45 6.12,2.45 -3.67,2.45 -8.56,2.44 18.96,2.45 -15.91,2.45 17.14,2.44 -3.67,2.45 -2.45,2.45 17.14,2.45 -11.02,2.45 1.22,2.45 15.3,2.44 -12.85,2.45 17.75,2.45 -22.03,2.45 14.69,2.45 -2.45,2.44 5.5,2.45 2.45,2.45 -4.28,2.45 0,2.45 11.02,2.44 7.95,2.45 -20.81,2.45 21.42,2.45 4.29,2.45 -0.61,2.44 3.67,2.45 -11.63,2.45 1.23,2.45 3.67,2.45 -3.07,2.44 6.13,2.45 -2.45,2.45 -0.61,2.45 -2.45,2.45 -3.06,2.45 10.4,2.44 -11.01,2.45 6.12,2.45 -0.62,2.44 6.73,2.45 -3.05,2.45 -7.96,2.45 5.51,2.45 -1.84,2.45 12.85,2.45 -13.46,2.44 9.79,2.45 -1.84,2.45 -6.11,2.45 11.01,2.44 1.84,2.45 -4.29,2.45 1.23,2.45 -8.57,2.45 4.29,2.44 -1.84,2.45 -4.29,2.45 4.29,2.45 -9.79,2.45 6.12,2.44 -3.07,2.45 2.45,2.45 15.3,2.45 -7.34,2.45 12.24,2.44 -13.47,2.45 5.51,2.45 0,2.45 -0.61,2.45 3.67,2.45 -4.89,2.44 -3.68,2.45 3.07,2.45 -4.29,2.45 1.22,2.44 7.96,2.45 5.51,2.45 -13.47,2.45 10.41,2.45 -4.9,2.45 0,2.44 -3.67,2.45 -2.44,2.45 1.83,2.44 -0.61,2.45 3.67,2.45 -6.12,2.45 -0.61,2.45 1.22,2.45 1.22,2.45 2.45,2.44 -3.67,2.45 -11.01,2.45 8.56,2.45 4.29,2.44 -12.24,2.45 7.34,2.45 -4.9,2.45 3.07,2.45 4.89,2.44 -11.01,2.45 7.95,2.45 -0.61,2.45 -7.34,2.45 -5.51,2.44 10.4,2.45 1.84,2.45 -1.23,2.45 -10.4,2.45 7.35,2.44 -6.74,2.45 0,2.45 4.9,2.45 -12.86,2.45 6.74,2.45 4.28,2.44 6.12,2.45 -11.01,2.45 3.06,2.45 1.22,2.44 -9.18,2.45 3.06,2.45 -6.12,2.45 3.67,2.45 -0.61,2.45 -4.9,2.44 4.29,2.45 -6.12,2.45 4.28,2.44 2.45,2.45 -9.18,2.45 11.02,2.45 -6.12,2.45 8.57,2.45 -14.08,2.44 8.56,2.45 -9.18,2.45 4.29,2.45 2.45,2.45 2.44,2.44 -12.23,2.45 18.97,2.45 -15.3,2.45 -1.23,2.45 -10.4,2.44 9.18,2.45 6.73,2.45 -3.67,2.45 -8.57,2.45 18.36,2.44 -4.28,2.45 -7.96,2.45 -0.61,2.45 7.96,2.45 -11.63,2.44 13.46,2.45 -6.73,2.45 7.95,2.45 -2.44,2.45 5.51,2.45 -8.57,2.44 11.63,2.45 -18.36,2.45 21.42,2.44 -9.8,2.45 0,2.45 -4.89,2.45 15.3,2.45 -9.8,2.45 8.57,2.45 3.06,2.44 4.9,2.45 -9.79,2.45 6.12,2.45 -3.06,2.44 10.4,2.45 -5.5,2.45 4.89,2.45 -11.02,2.45 12.86,2.44 -9.18,2.45 3.05,2.45 9.18,2.45 -2.44,2.45 10.4,2.44 -12.24,2.45 16.53,2.45 -8.57,2.45 -1.84,2.45 0,2.44 3.67,2.45 -8.56,2.45 13.46,2.45 -4.9,2.45 8.57,2.45 -4.28,2.44 -6.73,2.45 4.28,2.45 -7.35,2.45 15.31,2.44 -9.18,2.45 1.83,2.45 -13.46,2.45 17.75,2.45 -6.74,2.45 5.51,2.44 -6.12,2.45 10.41,2.45 -9.8,2.44 -4.89,2.45 18.36,2.45 -6.73,2.45 7.95,2.45 1.84,2.45 -5.51,2.45 -10.4,2.44 -9.8,2.45 8.57,2.45 11.02,2.45 -10.41,2.44 10.41,2.45 -3.67,2.45 1.22,2.45 9.18,2.45 -13.47,2.44 7.35,2.45 -1.83,2.45 6.11,2.45 -1.22,2.45 -1.22,2.44 -8.57,2.45 -4.29,2.45 7.96,2.45 0.61,2.45 8.57,2.44 -17.14,2.45 2.45,2.45 1.22,2.45 11.02,2.45 -8.57,2.45 -3.67,2.44 3.67,2.45 -7.95,2.45 14.69,2.44 -5.51,2.45 0,2.45 1.84,2.45 -6.74,2.45 4.9,2.45 -7.35,2.45 0,2.44 4.29,2.45 -5.51,2.45 12.85,2.44 0,2.45 -6.73,2.45 -4.9,2.45 10.41,2.45 7.34,2.45 -23.86,2.45 8.56,2.44 -1.83,2.45 -6.73,2.45 22.64,2.45 -11.63,2.44 3.06,2.45 5.51,2.45 -9.8,2.45 -7.95,2.45 10.4,2.44 7.96,2.45 -9.79,2.45 12.24,2.45 -0.61,2.45 -4.9,2.44 7.35,2.45 -6.74,2.45 -1.83,2.45 3.06,2.45 10.4,2.44 -13.46,2.45 11.01,2.45 -0.61,2.45 1.84,2.45 -3.67,2.45 9.78,2.44 -6.11,2.45 -0.62,2.45 3.06,2.44 0.62,2.45 3.67,2.45 -2.45,2.45 -9.18,2.45 0.61,2.45 2.45,2.45 -8.57,2.44 13.47,2.45 -7.96,2.45 6.12,2.45 -7.34,2.44 9.79,2.45 -14.69,2.45 15.3,2.45 -7.34,2.45 1.83,2.44 -7.95,2.45 15.91,2.45 -6.12,2.45 -1.23,2.45 -8.56,2.44 2.44,2.45 0.62,2.45 0,2.45 1.22,2.45 -3.67,2.44 0.61,2.45 2.45,2.45 -3.67,2.45 17.74,2.45 -16.52,2.45 -0.61,2.44 5.51,2.45 -7.35,2.45 -6.12,2.44 6.12,2.45 8.57,2.45 -8.57,2.45 8.57,2.45 -7.34,2.45 -0.62,2.45 1.23,2.44 -14.08,2.45 9.18,2.45 -7.34,2.44 9.18,2.45 -7.96,2.45 -3.06,2.45 0.61,2.45 0,2.45 1.23,2.45 -6.74,2.44 12.86,2.45 -7.35,2.45 4.29,2.45 3.67,2.44 -1.22,2.45 -4.29,2.45 -9.18,2.45 6.73,2.45 -9.18,2.44 -4.28,2.45 18.97,2.45 -9.79,2.45 0,2.45 0.61,2.44 10.41,2.45 -28.77,2.45 13.47,2.45 -4.9,2.45 4.28,2.44 -4.89,2.45 7.34,2.45 -4.28,2.45 12.85,2.45 -14.69,2.45 -7.34,2.44 10.4,2.45 -1.22,2.45 6.73,2.44 -9.79,2.45 5.51,2.45 4.89,2.45 -9.18,2.45 -3.67,2.45 3.06,2.45 -6.12,2.44 12.85,2.45 -0.61,2.45 -3.67,2.44 -0.61,2.45 1.22,2.45 -1.22,2.45 -4.9,2.45 7.34,2.45 2.45,2.44 -4.89,2.45 -0.62,2.45 -7.95,2.45 4.28,2.45 5.51,2.44 0,2.45 -11.02,2.45 -1.22,2.45 -1.83,2.45 10.4,2.44 -6.12,2.45 1.22,2.45 -12.85,2.45 4.28,2.45 -3.06,2.44 -4.89,2.45 5.5,2.45 6.13,2.45 -5.51,2.45 0.61,2.44 -10.41,2.45 13.47,2.45 -6.73,2.45 0.61,2.45 -3.67,2.45 -3.06,2.44 1.83,2.45 1.23,2.45 2.45,2.44 0.61,2.45 -4.9,2.45 -1.84,2.45 -2.44,2.45 5.51,2.45 -7.35,2.45 -7.34,2.44 14.07,2.45 1.23,2.45 -3.68,2.45 -2.44,2.44 4.89,2.45 7.96,2.45 -1.84,2.45 -1.83,2.45 -8.57,2.44 3.67,2.45 14.08,2.45 -11.02,2.45 -3.67,2.45 -0.61,2.44 6.12,2.45 0,2.45 3.06,2.45 -3.06,2.45 2.44,2.44 7.35,2.45 0.61,2.45 -12.85,2.45 7.96,2.45 3.67,2.45 1.83,2.44 -11.62,2.45 13.46,2.45 2.45,2.45 -1.84,2.44 -1.22,2.45 6.12,2.45 -2.45,2.45 7.34,2.45 -5.51,2.45 -3.05,2.44 5.5,2.45 -8.56,2.45 4.89,2.44 2.45,2.45 7.35,2.45 -4.29,2.45 8.57,2.45 -17.14,2.45 8.57,2.44 0,2.45 -3.06,2.45 -1.83,2.45 7.34,2.45 -5.51,2.44 3.06,2.45 3.06,2.45 -4.28,2.45 -3.67,2.45 0.6,2.44 -0.6,2.45 9.78,2.45 -15.29,2.45 11.01,2.45 -3.67,2.44 5.51,2.45 -2.45,2.45 -7.96,2.45 5.51,2.45 -6.12,2.44 4.9,2.45 -0.62,2.45 3.07,2.45 3.67,2.45 -1.84,2.45 -1.83,2.44 -4.29,2.45 5.51,2.45 -12.24,2.44 6.12,2.45 -2.45,2.45 0.61,2.45 4.29,2.45 -0.62,2.45 3.68,2.45 -5.51,2.44 1.83,2.45 -6.73,2.45 8.57,2.44 -9.18,2.45 5.51,2.45 -8.57,2.45 -2.45,2.45 6.74,2.45 0.61,2.44 -1.84,2.45 -3.06,2.45 3.06,2.45 -1.83,2.45 -6.74,2.44 0,2.45 11.02,2.45 -5.51,2.45 1.84,2.45 -7.35,2.44 1.84,2.45 7.96,2.45 -8.57,2.45 12.24,2.45 -18.36,2.44 3.67,2.45 3.67,2.45 3.06,2.45 -6.73,2.45 -1.84,2.44 12.24,2.45 -1.83,2.45 -10.41,2.45 -8.56,2.45 0.61,2.45 3.06,2.44 1.22,2.45 -4.89,2.45 7.34,2.44 -7.34,2.45 -0.62,2.45 8.57,2.45 3.06,2.45 -6.12,2.45 -0.61,2.45 7.95,2.44 -4.89,2.45 8.57,2.45 -3.68,2.45 -3.67,2.44 0.62,2.45 4.28,2.45 -7.96,2.45 10.41,2.45 -16.53,2.44 11.02,2.45 -11.63,2.45 8.57,2.45 -4.29,2.45 0.62,2.44 -2.45,2.45 1.83,2.45 3.68,2.45 -1.23,2.45 2.45,2.44 -0.61,2.45 -6.73,2.45 12.24,2.45 -5.51,2.45 7.34,2.45 -3.67,2.44 -1.22,2.45 -3.06,2.45 -3.68,2.45 4.9,2.44 -2.45,2.45 4.9,2.45 2.45,2.45 -14.69,2.45 9.18,2.45 0,2.44 7.34,2.45 -7.95,2.45 1.83,2.44 0.62,2.45 1.83,2.45 -2.45,2.45 1.23,2.45 11.63,2.45 -11.02,2.45 6.73,2.44 -1.22,2.45 4.89,2.45 -9.79,2.45 16.52,2.44 -3.67,2.45 -7.34,2.45 12.24,2.45 3.67,2.45 0,2.44 -3.06,2.45 4.9,2.45 -9.18,2.45 9.18,2.45 -7.34,2.44 3.67,2.45 4.89,2.45 4.29,2.45 0,2.45 -5.51,2.44 -5.51,2.45 3.67,2.45 -4.28,2.45 0,4.9 -5.51,2.44 -2.45,2.45 6.74,2.45 -3.68,2.44 3.06,2.45 5.51,2.45 -4.89,2.45 -4.9,2.45 8.57,2.45 -6.74,2.45 5.51,2.44 -0.61,2.45 -9.79,2.45 4.28,2.44 6.73,2.45 0,2.45 -11.62,2.45 0,2.45 4.28,2.45 3.67,2.44 -8.56,2.45 6.73,2.45 7.34,2.45 -14.69,2.45 8.57,2.44 3.67,2.45 -4.89,2.45 -6.12,2.45 1.83,2.45 6.12,2.44 1.84,2.45 -1.84,2.45 1.22,2.45 7.35,2.45 -9.79,2.44 -0.61,2.45 9.18,2.45 -4.29,2.45 6.12,2.45 -3.67,2.44 2.45,2.45 2.44,2.45 -8.56,2.45 3.67,2.45 2.45,2.45 4.89,2.44 -4.28,2.45 0,2.45 -3.06,2.44 10.4,2.45 1.84,2.45 0.61,2.45 1.84,2.45 11.01,2.45 -6.11,2.45 4.89,2.44 -4.89,2.45 8.56,2.45 -6.73,2.45 6.12,2.44 1.84,2.45 1.22,2.45 -3.06,2.45 9.18,2.45 1.23,2.44 -4.29,2.45 -1.84,2.45 7.35,2.45 -4.29,2.45 2.45,2.44 -1.22,2.45 8.57,2.45 -8.57,2.45 -2.45,2.45 0.61,2.44 1.23,2.45 3.67,2.45 5.51,2.45 -1.84,2.45 -1.22,2.45 -1.84,2.44 -3.06,2.45 -0.61,2.45 1.84,2.44 0,2.45 14.68,2.45 -9.18,2.45 3.06,2.45 -7.96,2.45 11.02,2.45 -0.61,2.44 -1.23,2.45 -2.44,2.45 -3.06,2.44 0,2.45 3.67,2.45 3.06,2.45 -4.28,2.45 -1.23,2.45 5.51,2.44 -2.45,2.45 -4.89,2.45 1.83,2.45 3.06,2.45 -1.83,2.44 4.28,2.45 -1.84,2.45 -2.44,2.45 -5.51,2.45 6.73,2.44 -11.63,2.45 -0.61,2.45 11.63,2.45 -4.29,2.45 -0.61,2.44 2.45,2.45 0.61,2.45 2.45,2.45 -1.22,2.45 6.73,2.44 -7.96,2.45 -4.9,2.45 1.23,2.45 -4.28,2.45 0,2.45 -3.06,2.44 11.62,2.45 6.74,2.45 -4.29,2.44 -9.18,2.45 6.73,2.45 7.96,2.45 -5.51,2.45 -6.73,2.45 -0.61,2.45 -2.45,2.44 4.28,2.45 3.68,2.45 2.44,2.44 -8.57,2.45 3.07,2.45 8.56,2.45 -8.56,2.45 3.67,2.45 -4.29,2.44 -5.5,2.45 4.28,2.45 -1.83,2.45 -3.68,2.45 1.23,2.44 2.45,2.45 9.78,2.45 -11.01,2.45 2.45,2.45 -1.84,2.44 -0.61,2.45 -1.22,2.45 11.62,2.45 -12.24,2.45 10.41,2.44 -14.08,2.45 4.9,2.45 -1.23,2.45 -2.44,2.45 -1.23,2.44 -3.67,2.45 -2.45,2.45 1.23,2.45 4.28,2.45 3.67,2.45 -9.18,2.44 2.45,2.45 -5.51,2.45 6.12,2.44 2.45,2.45 -13.46,2.45 6.73,2.45 -1.84,2.45 1.84,2.45 -0.61,2.45 1.83,2.44 -7.95,2.45 0,2.45 9.79,2.45 -4.29,2.44 3.06,2.45 -6.73,2.45 4.9,2.45 3.67,2.45 -5.51,2.44 -6.12,2.45 6.12,2.45 -13.46,2.45 14.07,2.45 0.62,2.44 -1.84,2.45 -3.67,2.45 -1.23,2.45 3.07,2.45 -1.23,2.44 -2.45,2.45 5.51,2.45 1.84,2.45 -12.24,2.45 -1.23,2.45 3.06,2.44 -6.73,2.45 6.73,2.45 -3.67,2.45 -5.51,2.44 0.62,2.45 1.22,2.45 -9.18,2.45 3.67,2.45 -5.51,2.45 4.9,2.44 -3.06,2.45 -0.62,2.45 4.9,2.44 -6.12,2.45 -0.61,2.45 -1.22,2.45 -6.73,2.45 3.67,2.45 -1.23,2.45 -5.51,2.44 -2.45,2.45 7.96,2.45 -11.01,2.45 -4.9,2.44 7.34,2.45 0,2.45 -3.67,2.45 -4.9,2.45 -5.5,2.44 -0.61,2.45 0,4.9 -4.9,2.45 -1.84,2.44 -2.44,2.45 -0.62,2.45 1.84,2.45 -6.73,2.45 1.22,2.44 -1.22,2.45 1.84,2.45 -5.51,2.45 0,2.45 -1.84,2.45 4.28,2.44 -6.73,2.45 -7.34,2.45 6.73,2.45 5.51,2.44 -6.73,2.45 -1.23,2.45 3.68,2.45 -4.29,2.45 -3.67,2.45 3.06,2.44 11.63,2.45 -10.41,2.45 -4.89,2.44 1.22,2.45 4.9,2.45 0.61,2.45 -15.3,2.45 8.57,2.45 2.44,2.45 2.45,2.44 0.61,2.45 -3.67,2.45 4.29,2.45 -6.74,2.44 7.96,2.45 1.84,2.45 -3.68,2.45 0,2.45 -4.28,2.44 6.12,2.45 -6.12,2.45 4.28,2.45 -1.22,2.45 3.06,2.44 -3.67,2.45 -1.84,2.45 6.74,2.45 -6.13,2.45 8.57,2.44 3.67,2.45 -4.89,2.45 -0.61,2.45 4.89,2.45 2.45,2.45 -0.61,2.44 4.28,2.45 -3.67,2.45 4.9,2.44 1.83,2.45 -3.06,2.45 8.57,2.45 -3.06,2.45 9.79,2.45 -5.51,2.45 1.84,2.44 0,2.45 -0.61,2.45 5.5,2.45 -0.61,2.44 -1.83,2.45 3.67,2.45 6.12,2.45 -1.22,2.45 -0.62,2.44 8.57,2.45 1.23,2.45 -4.9,2.45 -0.61,2.45 10.4,2.44 -16.52,2.45 14.07,2.45 1.84,2.45 0,2.45 -5.51,2.44 6.73,2.45 -3.67,2.45 -5.51,2.45 9.8,2.45 -11.63,2.45 9.79,2.44 -6.73,2.45 7.34,2.45 -0.61,2.44 6.12,2.45 0.61,2.45 -3.06,2.45 -6.73,2.45 6.12,2.45 3.67,2.45 -1.84,2.44 -4.28,2.45 6.12,2.45 -7.95,2.44 5.51,2.45 6.11,2.45 -9.18,2.45 0.62,2.45 0.61,2.45 1.84,2.44 2.44,2.45 -4.89,2.45 3.67,2.45 -0.62,2.45 1.23,2.44 -3.06,2.45 -1.22,2.45 1.22,2.45 -6.12,2.45 2.45,2.44 -4.28,2.45 14.68,2.45 -5.5,2.45 -1.23,2.45 -7.34,2.44 7.34,2.45 -8.57,2.45 3.06,2.45 2.45,2.45 3.06,2.44 -7.95,2.45 -2.45,2.45 6.12,2.45 0.61,2.45 -3.06,2.45 10.4,2.44 -14.69,2.45 17.75,2.45 -6.12,2.44 0,2.45 2.45,2.45 0,2.45 -4.9,2.45 -3.67,2.45 8.57,2.45 -4.9,2.44 -6.11,2.45 7.95,2.45 1.23,2.44 -0.62,2.45 -1.22,2.45 0,2.45 -3.06,2.45 7.34,2.45 -3.06,2.44 -1.83,2.45 2.45,2.45 -7.96,2.45 11.63,2.45 -0.62,2.44 -7.34,2.45 4.29,2.45 4.89,2.45 -4.29,2.45 2.45,2.44 -5.5,2.45 -3.06,2.45 5.51,2.45 -0.62,2.45 -1.83,2.44 1.83,2.45 -3.67,2.45 6.12,2.45 -4.28,2.45 1.83,2.44 -7.34,2.45 5.51,2.45 6.73,2.45 -13.46,2.45 5.5,2.45 -1.83,2.44 6.73,2.45 -1.22,0.61"
     style="fill:none;stroke:#ff0000;stroke-opacity:1;stroke-width:9.18;stroke-linecap:butt;stroke-linejoin:miter;stroke-miterlimit:10;stroke-dasharray:none"
     id="path3022" /><path
     d="m 5202,918 0,6120"
     style="fill:none;stroke:#000000;stroke-opacity:1;stroke-width:9.18;stroke-linecap:butt;stroke-linejoin:miter;stroke-miterlimit:10;stroke-dasharray:none"
     id="path3024" /><path
     d="m 918,918 0,6120"
     style="fill:none;stroke:#000000;stroke-opacity:1;stroke-width:9.18;stroke-linecap:butt;stroke-linejoin:miter;stroke-miterlimit:10;stroke-dasharray:none"
     id="path3026" /><path
     d="m 5202,1530 -61.2,0"
     style="fill:none;stroke:#000000;stroke-opacity:1;stroke-width:18.36;stroke-linecap:butt;stroke-linejoin:miter;stroke-miterlimit:10;stroke-dasharray:none"
     id="path3028" /><path
     d="m 918,1530 61.199,0"
     style="fill:none;stroke:#000000;stroke-opacity:1;stroke-width:18.36;stroke-linecap:butt;stroke-linejoin:miter;stroke-miterlimit:10;stroke-dasharray:none"
     id="path3030" /><path
     d="m 5202,2754 -61.2,0"
     style="fill:none;stroke:#000000;stroke-opacity:1;stroke-width:18.36;stroke-linecap:butt;stroke-linejoin:miter;stroke-miterlimit:10;stroke-dasharray:none"
     id="path3032" /><path
     d="m 918,2754 61.199,0"
     style="fill:none;stroke:#000000;stroke-opacity:1;stroke-width:18.36;stroke-linecap:butt;stroke-linejoin:miter;stroke-miterlimit:10;stroke-dasharray:none"
     id="path3034" /><path
     d="m 5202,3978 -61.2,0"
     style="fill:none;stroke:#000000;stroke-opacity:1;stroke-width:18.36;stroke-linecap:butt;stroke-linejoin:miter;stroke-miterlimit:10;stroke-dasharray:none"
     id="path3036" /><path
     d="m 918,3978 61.199,0"
     style="fill:none;stroke:#000000;stroke-opacity:1;stroke-width:18.36;stroke-linecap:butt;stroke-linejoin:miter;stroke-miterlimit:10;stroke-dasharray:none"
     id="path3038" /><path
     d="m 5202,5202 -61.2,0"
     style="fill:none;stroke:#000000;stroke-opacity:1;stroke-width:18.36;stroke-linecap:butt;stroke-linejoin:miter;stroke-miterlimit:10;stroke-dasharray:none"
     id="path3040" /><path
     d="m 918,5202 61.199,0"
     style="fill:none;stroke:#000000;stroke-opacity:1;stroke-width:18.36;stroke-linecap:butt;stroke-linejoin:miter;stroke-miterlimit:10;stroke-dasharray:none"
     id="path3042" /><path
     d="m 5202,6426 -61.2,0"
     style="fill:none;stroke:#000000;stroke-opacity:1;stroke-width:18.36;stroke-linecap:butt;stroke-linejoin:miter;stroke-miterlimit:10;stroke-dasharray:none"
     id="path3044" /><path
     d="m 918,6426 61.199,0"
     style="fill:none;stroke:#000000;stroke-opacity:1;stroke-width:18.36;stroke-linecap:butt;stroke-linejoin:miter;stroke-miterlimit:10;stroke-dasharray:none"
     id="path3046" /><path
     d="m 5202,918 -122.4,0"
     style="fill:none;stroke:#000000;stroke-opacity:1;stroke-width:18.36;stroke-linecap:butt;stroke-linejoin:miter;stroke-miterlimit:10;stroke-dasharray:none"
     id="path3048" /><path
     d="m 918,918 122.4,0"
     style="fill:none;stroke:#000000;stroke-opacity:1;stroke-width:18.36;stroke-linecap:butt;stroke-linejoin:miter;stroke-miterlimit:10;stroke-dasharray:none"
     id="path3050" /><path
     d="m 5202,2142 -122.4,0"
     style="fill:none;stroke:#000000;stroke-opacity:1;stroke-width:18.36;stroke-linecap:butt;stroke-linejoin:miter;stroke-miterlimit:10;stroke-dasharray:none"
     id="path3052" /><path
     d="m 918,2142 122.4,0"
     style="fill:none;stroke:#000000;stroke-opacity:1;stroke-width:18.36;stroke-linecap:butt;stroke-linejoin:miter;stroke-miterlimit:10;stroke-dasharray:none"
     id="path3054" /><path
     d="m 5202,3366 -122.4,0"
     style="fill:none;stroke:#000000;stroke-opacity:1;stroke-width:18.36;stroke-linecap:butt;stroke-linejoin:miter;stroke-miterlimit:10;stroke-dasharray:none"
     id="path3056" /><path
     d="m 918,3366 122.4,0"
     style="fill:none;stroke:#000000;stroke-opacity:1;stroke-width:18.36;stroke-linecap:butt;stroke-linejoin:miter;stroke-miterlimit:10;stroke-dasharray:none"
     id="path3058" /><path
     d="m 5202,4590 -122.4,0"
     style="fill:none;stroke:#000000;stroke-opacity:1;stroke-width:18.36;stroke-linecap:butt;stroke-linejoin:miter;stroke-miterlimit:10;stroke-dasharray:none"
     id="path3060" /><path
     d="m 918,4590 122.4,0"
     style="fill:none;stroke:#000000;stroke-opacity:1;stroke-width:18.36;stroke-linecap:butt;stroke-linejoin:miter;stroke-miterlimit:10;stroke-dasharray:none"
     id="path3062" /><path
     d="m 5202,5814 -122.4,0"
     style="fill:none;stroke:#000000;stroke-opacity:1;stroke-width:18.36;stroke-linecap:butt;stroke-linejoin:miter;stroke-miterlimit:10;stroke-dasharray:none"
     id="path3064" /><path
     d="m 918,5814 122.4,0"
     style="fill:none;stroke:#000000;stroke-opacity:1;stroke-width:18.36;stroke-linecap:butt;stroke-linejoin:miter;stroke-miterlimit:10;stroke-dasharray:none"
     id="path3066" /><path
     d="m 5202,7038 -122.4,0"
     style="fill:none;stroke:#000000;stroke-opacity:1;stroke-width:18.36;stroke-linecap:butt;stroke-linejoin:miter;stroke-miterlimit:10;stroke-dasharray:none"
     id="path3068" /><path
     d="m 918,7038 122.4,0"
     style="fill:none;stroke:#000000;stroke-opacity:1;stroke-width:18.36;stroke-linecap:butt;stroke-linejoin:miter;stroke-miterlimit:10;stroke-dasharray:none"
     id="path3070" /><g
     id="g3072"
     transform="scale(10,10)"><text
   transform="matrix(0,1,1,0,537.826,87.6996)"
   id="text3074"><tspan
     style="fill:#000000;fill-opacity:1;fill-rule:nonzero;stroke:none;font-family:Times;font-variant:normal;font-weight:normal;font-size:17.136;writing-mode:lr;-inkscape-font-specification:Times-Roman"
     x="0 123.13432656 244.79992656 367.5672 489.60002448"
     y="0"
     sodipodi:role="line"
     id="tspan3076">01234</tspan><tspan
     style="fill:#000000;fill-opacity:1;fill-rule:nonzero;stroke:none;font-family:Times;font-variant:normal;font-weight:normal;font-size:17.136;writing-mode:lr;-inkscape-font-specification:Times-Roman"
     x="612.367"
     y="0.244531"
     id="tspan3078">5</tspan></text>

</g><path
     d="M 5202,918 918,918"
     style="fill:none;stroke:#000000;stroke-opacity:1;stroke-width:9.18;stroke-linecap:butt;stroke-linejoin:miter;stroke-miterlimit:10;stroke-dasharray:none"
     id="path3080" /><path
     d="m 5202,7038 -4284,0"
     style="fill:none;stroke:#000000;stroke-opacity:1;stroke-width:9.18;stroke-linecap:butt;stroke-linejoin:miter;stroke-miterlimit:10;stroke-dasharray:none"
     id="path3082" /><path
     d="m 4666.5,918 0,61.199"
     style="fill:none;stroke:#000000;stroke-opacity:1;stroke-width:18.36;stroke-linecap:butt;stroke-linejoin:miter;stroke-miterlimit:10;stroke-dasharray:none"
     id="path3084" /><path
     d="m 4666.5,7038 0,-61.2"
     style="fill:none;stroke:#000000;stroke-opacity:1;stroke-width:18.36;stroke-linecap:butt;stroke-linejoin:miter;stroke-miterlimit:10;stroke-dasharray:none"
     id="path3086" /><path
     d="m 3595.5,918 0,61.199"
     style="fill:none;stroke:#000000;stroke-opacity:1;stroke-width:18.36;stroke-linecap:butt;stroke-linejoin:miter;stroke-miterlimit:10;stroke-dasharray:none"
     id="path3088" /><path
     d="m 3595.5,7038 0,-61.2"
     style="fill:none;stroke:#000000;stroke-opacity:1;stroke-width:18.36;stroke-linecap:butt;stroke-linejoin:miter;stroke-miterlimit:10;stroke-dasharray:none"
     id="path3090" /><path
     d="m 2524.5,918 0,61.199"
     style="fill:none;stroke:#000000;stroke-opacity:1;stroke-width:18.36;stroke-linecap:butt;stroke-linejoin:miter;stroke-miterlimit:10;stroke-dasharray:none"
     id="path3092" /><path
     d="m 2524.5,7038 0,-61.2"
     style="fill:none;stroke:#000000;stroke-opacity:1;stroke-width:18.36;stroke-linecap:butt;stroke-linejoin:miter;stroke-miterlimit:10;stroke-dasharray:none"
     id="path3094" /><path
     d="m 1453.5,918 0,61.199"
     style="fill:none;stroke:#000000;stroke-opacity:1;stroke-width:18.36;stroke-linecap:butt;stroke-linejoin:miter;stroke-miterlimit:10;stroke-dasharray:none"
     id="path3096" /><path
     d="m 1453.5,7038 0,-61.2"
     style="fill:none;stroke:#000000;stroke-opacity:1;stroke-width:18.36;stroke-linecap:butt;stroke-linejoin:miter;stroke-miterlimit:10;stroke-dasharray:none"
     id="path3098" /><path
     d="m 5202,918 0,122.4"
     style="fill:none;stroke:#000000;stroke-opacity:1;stroke-width:18.36;stroke-linecap:butt;stroke-linejoin:miter;stroke-miterlimit:10;stroke-dasharray:none"
     id="path3100" /><path
     d="m 5202,7038 0,-122.4"
     style="fill:none;stroke:#000000;stroke-opacity:1;stroke-width:18.36;stroke-linecap:butt;stroke-linejoin:miter;stroke-miterlimit:10;stroke-dasharray:none"
     id="path3102" /><path
     d="m 4131,918 0,122.4"
     style="fill:none;stroke:#000000;stroke-opacity:1;stroke-width:18.36;stroke-linecap:butt;stroke-linejoin:miter;stroke-miterlimit:10;stroke-dasharray:none"
     id="path3104" /><path
     d="m 4131,7038 0,-122.4"
     style="fill:none;stroke:#000000;stroke-opacity:1;stroke-width:18.36;stroke-linecap:butt;stroke-linejoin:miter;stroke-miterlimit:10;stroke-dasharray:none"
     id="path3106" /><path
     d="m 3060,918 0,122.4"
     style="fill:none;stroke:#000000;stroke-opacity:1;stroke-width:18.36;stroke-linecap:butt;stroke-linejoin:miter;stroke-miterlimit:10;stroke-dasharray:none"
     id="path3108" /><path
     d="m 3060,7038 0,-122.4"
     style="fill:none;stroke:#000000;stroke-opacity:1;stroke-width:18.36;stroke-linecap:butt;stroke-linejoin:miter;stroke-miterlimit:10;stroke-dasharray:none"
     id="path3110" /><path
     d="m 1989,918 0,122.4"
     style="fill:none;stroke:#000000;stroke-opacity:1;stroke-width:18.36;stroke-linecap:butt;stroke-linejoin:miter;stroke-miterlimit:10;stroke-dasharray:none"
     id="path3112" /><path
     d="m 1989,7038 0,-122.4"
     style="fill:none;stroke:#000000;stroke-opacity:1;stroke-width:18.36;stroke-linecap:butt;stroke-linejoin:miter;stroke-miterlimit:10;stroke-dasharray:none"
     id="path3114" /><path
     d="m 918,918 0,122.4"
     style="fill:none;stroke:#000000;stroke-opacity:1;stroke-width:18.36;stroke-linecap:butt;stroke-linejoin:miter;stroke-miterlimit:10;stroke-dasharray:none"
     id="path3116" /><path
     d="m 918,7038 0,-122.4"
     style="fill:none;stroke:#000000;stroke-opacity:1;stroke-width:18.36;stroke-linecap:butt;stroke-linejoin:miter;stroke-miterlimit:10;stroke-dasharray:none"
     id="path3118" /><g
     id="g3120"
     transform="scale(10,10)"><text
   transform="matrix(0,1,1,0,525.83,77.5402)"
   id="text3122"><tspan
     style="fill:#000000;fill-opacity:1;fill-rule:nonzero;stroke:none;font-family:Times;font-variant:normal;font-weight:normal;font-size:17.136;writing-mode:lr;-inkscape-font-specification:Times-Roman"
     x="0"
     y="0"
     id="tspan3124">0</tspan><tspan
     style="fill:#000000;fill-opacity:1;fill-rule:nonzero;stroke:none;font-family:Times;font-variant:normal;font-weight:normal;font-size:17.136;writing-mode:lr;-inkscape-font-specification:Times-Roman"
     x="1.40781"
     y="-106.978"
     id="tspan3126">1</tspan><tspan
     style="fill:#000000;fill-opacity:1;fill-rule:nonzero;stroke:none;font-family:Times;font-variant:normal;font-weight:normal;font-size:17.136;writing-mode:lr;-inkscape-font-specification:Times-Roman"
     x="0"
     y="-214.078"
     id="tspan3128">2</tspan><tspan
     style="fill:#000000;fill-opacity:1;fill-rule:nonzero;stroke:none;font-family:Times;font-variant:normal;font-weight:normal;font-size:17.136;writing-mode:lr;-inkscape-font-specification:Times-Roman"
     x="0.673438"
     y="-321.3"
     id="tspan3130">3</tspan><tspan
     style="fill:#000000;fill-opacity:1;fill-rule:nonzero;stroke:none;font-family:Times;font-variant:normal;font-weight:normal;font-size:17.136;writing-mode:lr;-inkscape-font-specification:Times-Roman"
     x="0"
     y="-428.278"
     id="tspan3132">4</tspan></text>

</g><path
     d="m 918,918 4284,0 0,6120 -4284,0 0,-6120 z"
     style="fill:none;stroke:#000000;stroke-opacity:1;stroke-width:18.36;stroke-linecap:butt;stroke-linejoin:miter;stroke-miterlimit:10;stroke-dasharray:none"
     id="path3134" /></g><text
   xml:space="preserve"
   style="font-size:32px;font-style:normal;font-weight:normal;line-height:125%;letter-spacing:0px;word-spacing:0px;fill:#000000;fill-opacity:1;stroke:none;font-family:Sans"
   x="305.17499"
   y="580.81989"
   id="text3291"
   sodipodi:linespacing="125%"
   transform="matrix(0,1,1,0,0,0)"><tspan
     sodipodi:role="line"
     id="tspan3293"
     x="305.17499"
     y="580.81989"
     style="font-size:25.60000038px">Distance (nm)</tspan></text>

<text
   transform="scale(-1,1)"
   sodipodi:linespacing="125%"
   id="text3295"
   y="55.81464"
   x="-332.625"
   style="font-size:25.60000038px;font-style:normal;font-weight:normal;line-height:125%;letter-spacing:0px;word-spacing:0px;fill:#000000;fill-opacity:1;stroke:none;font-family:Sans"
   xml:space="preserve"><tspan
     y="55.81464"
     x="-332.625"
     id="tspan3297"
     sodipodi:role="line">RDF</tspan></text>

</g></svg>